<svg width="126" height="54" viewBox="0 0 126 54" fill="none" xmlns="http://www.w3.org/2000/svg">
    <path
        d="M72.282 26.9364H68.8957V39.6829H64.1707V26.9364H61.7295V22.8501H64.1707V21.2601C64.1707 17.142 66.717 15.0273 70.5862 15.0273C71.1854 15.0324 71.7821 15.1035 72.366 15.2393V20.0093C71.8567 19.8031 71.3135 19.6952 70.7647 19.6913C70.5168 19.6715 70.2676 19.7061 70.0341 19.7927C69.8007 19.8794 69.5887 20.016 69.4126 20.1933C69.2364 20.3706 69.1005 20.5843 69.014 20.8197C68.9275 21.0551 68.8925 21.3066 68.9115 21.5569V22.8236H72.2977L72.282 26.9364ZM79.3957 39.6829H74.6182V15.3877H79.3957V39.6829Z"
        fill="white" />
    <path
        d="M90.0008 21.7956C91.7922 21.7925 93.5443 22.3261 95.0352 23.3289C96.526 24.3317 97.6885 25.7586 98.3755 27.4288C99.0625 29.0991 99.2431 30.9376 98.8944 32.7115C98.5456 34.4854 97.6833 36.115 96.4165 37.3938C95.1498 38.6726 93.5356 39.5432 91.7784 39.8952C90.0212 40.2473 88.2001 40.065 86.5456 39.3714C84.8911 38.6779 83.4777 37.5043 82.4843 35.9992C81.491 34.4942 80.9624 32.7254 80.9655 30.9169C80.9507 29.715 81.1743 28.5221 81.6232 27.4087C82.072 26.2954 82.737 25.2839 83.5789 24.4339C84.4209 23.5839 85.4228 22.9126 86.5257 22.4595C87.6286 22.0064 88.8101 21.7807 90.0008 21.7956ZM90.0008 35.3901C92.442 35.3901 94.2008 33.3443 94.2008 30.9169C94.2271 30.3438 94.1379 29.7713 93.9386 29.2341C93.7393 28.6968 93.4341 28.2059 93.0415 27.7912C92.6488 27.3765 92.1769 27.0465 91.6542 26.8213C91.1316 26.596 90.5691 26.4802 90.0008 26.4808C88.8568 26.5207 87.7729 27.0074 86.9776 27.8385C86.1823 28.6695 85.7378 29.7799 85.7378 30.9355C85.7378 32.091 86.1823 33.2014 86.9776 34.0324C87.7729 34.8635 88.8568 35.3503 90.0008 35.3901Z"
        fill="white" />
    <path
        d="M104.023 22.1504L107.095 33.8104L110.166 24.546L109.326 22.1557H114.051L118.099 33.8157L121.096 22.1557H126L120.839 39.6881H115.883L112.429 30.0739L109.2 39.6828H104.212L99.083 22.1504H104.023Z"
        fill="white" />
    <path
        d="M26.25 53.5C40.7475 53.5 52.5 41.6355 52.5 27C52.5 12.3645 40.7475 0.5 26.25 0.5C11.7525 0.5 0 12.3645 0 27C0 41.6355 11.7525 53.5 26.25 53.5Z"
        fill="#00EF8B" />
    <path d="M37.7685 22.8555H30.3555V30.3391H37.7685V22.8555Z" fill="white" />
    <path
        d="M22.9479 33.1428C22.9479 33.6983 22.7847 34.2414 22.4789 34.7034C22.1732 35.1653 21.7386 35.5253 21.2302 35.7379C20.7217 35.9506 20.1623 36.0062 19.6225 35.8978C19.0828 35.7894 18.587 35.5219 18.1978 35.129C17.8087 34.7362 17.5437 34.2357 17.4363 33.6908C17.329 33.1459 17.3841 32.5811 17.5947 32.0678C17.8053 31.5545 18.1619 31.1158 18.6195 30.8072C19.0771 30.4985 19.615 30.3338 20.1654 30.3338H22.9479V22.8555H20.1654C18.1499 22.8555 16.1797 23.4588 14.504 24.5892C12.8282 25.7196 11.5221 27.3262 10.7508 29.206C9.97951 31.0857 9.77771 33.1542 10.1709 35.1497C10.5641 37.1453 11.5346 38.9783 12.9598 40.417C14.3849 41.8557 16.2006 42.8355 18.1773 43.2324C20.154 43.6293 22.203 43.4256 24.065 42.647C25.927 41.8684 27.5185 40.5498 28.6382 38.8581C29.758 37.1663 30.3556 35.1774 30.3556 33.1428V30.3338H22.9479V33.1428Z"
        fill="white" />
    <path
        d="M33.138 19.1135H41.475V11.6299H33.138C30.4362 11.6327 27.8459 12.7174 25.9355 14.6461C24.025 16.5747 22.9505 19.1897 22.9478 21.9172V22.8553H30.3555V21.9172C30.3569 21.1731 30.6507 20.46 31.1723 19.9343C31.694 19.4087 32.4009 19.1135 33.138 19.1135Z"
        fill="white" />
    <path d="M22.9478 30.3338H30.3555V22.8555H22.9478V30.3338Z" fill="#00EF8B" />
</svg>